<svg id="Layer_1" enable-background="new 0 0 512 512" height="512" viewBox="0 0 512 512" width="512" xmlns="http://www.w3.org/2000/svg"><g><g><path clip-rule="evenodd" d="m255.986 15h-172.007-39.288c-20.467 0-37.191 16.71-37.191 37.159v84.063l87.704 145.297c125.462-80.777 217.588-45.968 321.563 0l87.733-169.938v-59.422c0-20.449-16.753-37.159-37.191-37.159h-39.288z" fill="#b1d7fe" fill-rule="evenodd"/></g><g><path clip-rule="evenodd" d="m354.49 81.814c0-16.031-12.983-29.003-29.027-29.003s-29.027 12.972-29.027 29.003c0 16.002 12.983 29.003 29.027 29.003 16.044-.001 29.027-13.001 29.027-29.003z" fill="#ffdb4e" fill-rule="evenodd"/></g><g><path clip-rule="evenodd" d="m504.5 52.159c0 20.449-16.753 37.16-37.191 37.16h-37.871c-6.945 0-12.671 5.693-12.671 12.66v134.392 51.378 19.684c0 6.967 5.726 12.66 12.671 12.66h37.871c20.438 0 37.191-16.739 37.191-37.16z" fill="#808b95" fill-rule="evenodd"/></g><g><path clip-rule="evenodd" d="m304.147 194.369-60.945-92.559c-16.158-24.528-43.257-24.528-59.386 0l-88.612 134.562-35 51.378h305.426z" fill="#ccf49f" fill-rule="evenodd"/></g><g><path clip-rule="evenodd" d="m371.866 168.17c-13.691-20.846-36.765-20.846-50.485 0l-17.235 26.199 13.181 62.764 48.302 30.617h51.137v-51.378z" fill="#ccf49f" fill-rule="evenodd"/></g><g><path clip-rule="evenodd" d="m504.5 282.935v-230.776c0 20.449-16.753 37.16-37.191 37.16h-.68v128.19 65.426c0 20.421-16.724 37.16-37.191 37.16h37.871c20.438 0 37.191-16.739 37.191-37.16z" fill="#566b74" fill-rule="evenodd"/></g><g><path clip-rule="evenodd" d="m82.533 89.319h-37.842c-20.467 0-37.191-16.71-37.191-37.16v230.775c0 20.421 16.753 37.16 37.191 37.16h37.843c6.973 0 12.671-5.693 12.671-12.66v-19.684-51.378-134.392c-.001-6.968-5.698-12.661-12.672-12.661z" fill="#808b95" fill-rule="evenodd"/></g><g><path clip-rule="evenodd" d="m304.147 194.369-60.945-92.559c-10.205-15.493-24.803-21.186-38.24-17.107 25.228 38.831 41.102 90.917 42.35 148.441.057 2.407.085 4.815.085 7.251 0 16.229-1.191 32.09-3.402 47.356h121.635z" fill="#b3e59f" fill-rule="evenodd"/></g><g><path clip-rule="evenodd" d="m416.767 236.372-44.901-68.202c-6.718-10.225-15.676-15.436-24.69-15.634 17.745 31.722 29.707 70.722 33.562 113.49.624 7.137 1.049 14.388 1.219 21.724h34.81v-6.231z" fill="#b3e59f" fill-rule="evenodd"/></g><g><path clip-rule="evenodd" d="m95.204 101.98c0-6.967-5.698-12.66-12.671-12.66h-37.842c6.945 0 12.671 5.693 12.671 12.66v116.832 17.56 51.378 19.684c0 6.967-5.726 12.66-12.671 12.66h37.843c6.973 0 12.671-5.693 12.671-12.66v-19.684-6.231-45.147-134.392z" fill="#566b74" fill-rule="evenodd"/></g><g><path clip-rule="evenodd" d="m354.49 81.814c0-16.031-12.983-29.003-29.027-29.003-3.061 0-6.038.481-8.816 1.36 10.772 4.22 18.397 14.728 18.397 26.992 0 12.944-8.504 23.905-20.211 27.643 3.288 1.303 6.888 2.011 10.63 2.011 16.044-.001 29.027-13.001 29.027-29.003z" fill="#ffaf5d" fill-rule="evenodd"/></g><g><path clip-rule="evenodd" d="m428.021 15h-171.156c16.413 14.388 30.189 36.707 39.685 64.123 1.077-11.754 9.184-21.497 20.098-24.953 2.778-.878 5.754-1.36 8.816-1.36 16.044 0 29.027 12.972 29.027 29.003 0 16.002-12.983 29.003-29.027 29.003-3.742 0-7.342-.708-10.63-2.011-4.819-1.898-9.014-5.041-12.161-9.035 5.187 20.931 8.079 44.071 8.079 68.4 0 5.693-.17 11.329-.482 16.88l11.112-16.88c7.002-10.621 16.413-15.833 25.795-15.634 9.014.198 17.972 5.41 24.69 15.634l44.901 68.202v-134.392c0-6.967 5.726-12.66 12.671-12.66h37.191.68c20.438 0 37.191-16.711 37.191-37.16-.001-20.45-16.754-37.16-37.192-37.16z" fill="#8bc6f8" fill-rule="evenodd"/></g><g><path d="m189.57 407.986h-37.588c-4.143 0-7.5 3.358-7.5 7.5s3.357 7.5 7.5 7.5h37.588c8.871 0 16.089-7.214 16.089-16.082v-59.11c0-8.868-7.218-16.082-16.089-16.082h-37.588c-4.143 0-7.5 3.358-7.5 7.5s3.357 7.5 7.5 7.5h37.588c.56 0 1.089.526 1.089 1.082v22.069h-38.677c-4.143 0-7.5 3.358-7.5 7.5s3.357 7.5 7.5 7.5h38.677v22.041c0 .557-.529 1.082-1.089 1.082z"/><path d="m241.501 346.713h37.559c4.143 0 7.5-3.358 7.5-7.5s-3.357-7.5-7.5-7.5h-37.559c-8.871 0-16.089 7.214-16.089 16.082v59.11c0 8.867 7.218 16.082 16.089 16.082h28.998c8.855 0 16.061-7.214 16.061-16.082v-20.987c0-8.852-7.205-16.054-16.061-16.054h-30.087v-22.069c0-.576.509-1.082 1.089-1.082zm28.998 38.151c.565 0 1.061.492 1.061 1.054v20.987c0 .566-.506 1.082-1.061 1.082h-28.998c-.58 0-1.089-.505-1.089-1.082v-22.041z"/><path d="m351.4 422.986c8.871 0 16.089-7.214 16.089-16.082v-59.11c0-8.868-7.218-16.082-16.089-16.082h-28.999c-8.855 0-16.061 7.214-16.061 16.082v59.11c0 8.867 7.205 16.082 16.061 16.082zm-30.059-16.081v-59.11c0-.566.506-1.082 1.061-1.082h28.998c.58 0 1.089.506 1.089 1.082v59.11c0 .576-.509 1.082-1.089 1.082h-28.999c-.554-.001-1.06-.517-1.06-1.082z"/><path d="m389.893 393.238c-3.811-1.626-8.216.143-9.843 3.952s.143 8.216 3.952 9.843c14.4 6.15 22.998 13.302 22.998 19.131 0 11.559-35.313 31.372-111.109 37.188-4.13.317-7.221 3.922-6.903 8.052.302 3.935 3.588 6.927 7.47 6.927.192 0 .387-.007.582-.022 33.892-2.601 64.623-8.53 86.532-16.697 25.498-9.507 38.428-21.433 38.428-35.448 0-12.75-10.803-23.828-32.107-32.926z"/><path d="m262.251 476.475c2.134-3.24 1.362-7.73-1.718-10.08l-32.314-24.641c-3.295-2.512-8.001-1.876-10.512 1.416-2.512 3.294-1.878 8 1.416 10.512l14.029 10.698c-32.948-1.394-63.29-5.799-87.136-12.749-30.274-8.824-41.016-19.234-41.016-25.467 0-5.839 8.596-12.99 22.994-19.129 3.811-1.625 5.582-6.03 3.958-9.84-1.625-3.809-6.03-5.582-9.841-3.958-21.307 9.084-32.111 20.162-32.111 32.927 0 16.201 17.919 29.987 51.819 39.868 25.402 7.404 57.668 12.042 92.516 13.404l-15.213 11.6c-3.294 2.512-3.928 7.218-1.416 10.512 1.476 1.936 3.71 2.953 5.97 2.953 1.585 0 3.184-.501 4.542-1.537l32.314-24.641c.673-.513 1.256-1.144 1.719-1.848z"/><path d="m388.735 331.855.028-.028c2.929-2.929 2.914-7.664-.015-10.592s-7.69-2.914-10.621.014c-2.929 2.929-2.929 7.678 0 10.606 1.465 1.464 3.385 2.197 5.304 2.197s3.84-.732 5.304-2.197z"/><path d="m467.31 7.5h-188.93c-4.143 0-7.5 3.358-7.5 7.5s3.357 7.5 7.5 7.5h188.93c16.371 0 29.69 13.305 29.69 29.66s-13.319 29.66-29.69 29.66h-37.871c-11.122 0-20.171 9.044-20.171 20.161v109.361l-31.133-47.288c-7.934-12.08-19.41-19.011-31.485-19.017-.005 0-.01 0-.015 0-12.079 0-23.566 6.929-31.52 19.012l-10.972 16.679-54.678-83.044c-9.115-13.836-22.223-21.77-35.968-21.77-.004 0-.01 0-.014 0-13.741.006-26.838 7.942-35.932 21.771l-74.848 113.661v-109.366c0-11.117-9.049-20.161-20.171-20.161h-37.842c-16.371 0-29.69-13.305-29.69-29.66s13.319-29.659 29.69-29.659h199.05c4.143 0 7.5-3.358 7.5-7.5s-3.357-7.5-7.5-7.5h-199.05c-24.642 0-44.69 20.034-44.69 44.659v230.775c0 24.625 20.048 44.66 44.69 44.66h37.843c11.122 0 20.171-9.044 20.171-20.16v-12.184h134.403c4.143 0 7.5-3.358 7.5-7.5s-3.357-7.5-7.5-7.5h-134.403v-41.63l87.378-132.689c6.365-9.68 14.678-15.013 23.407-15.017h.009c8.734 0 17.059 5.335 23.439 15.021l114.775 174.315h-79.116c-4.143 0-7.5 3.358-7.5 7.5s3.357 7.5 7.5 7.5h136.671v12.185c0 11.116 9.049 20.16 20.171 20.16h37.871c24.643 0 44.69-20.034 44.69-44.66v-230.776c.001-24.625-20.047-44.659-44.689-44.659zm-379.606 228.947v.011 70.977c0 2.845-2.319 5.16-5.171 5.16h-37.843c-16.371 0-29.69-13.305-29.69-29.66v-197.424c7.899 7.031 18.305 11.308 29.69 11.308h37.843c2.852 0 5.171 2.315 5.171 5.161zm321.564 43.803h-39.597l-56.547-85.882 14.521-22.075c5.203-7.905 11.946-12.257 18.988-12.257h.009c7.036.003 13.768 4.354 18.959 12.258l43.666 66.325v41.631zm87.732 2.685c0 16.354-13.319 29.66-29.69 29.66h-37.871c-2.803 0-5.171-2.363-5.171-5.16v-19.685-185.77c0-2.797 2.368-5.161 5.171-5.161h37.871c11.386 0 21.791-4.277 29.69-11.308z"/><path d="m361.99 81.814c0-20.128-16.386-36.503-36.527-36.503s-36.526 16.375-36.526 36.503c0 20.127 16.386 36.502 36.526 36.502 20.141 0 36.527-16.375 36.527-36.502zm-58.053 0c0-11.857 9.656-21.503 21.526-21.503s21.527 9.646 21.527 21.503c0 11.856-9.657 21.502-21.527 21.502s-21.526-9.646-21.526-21.502z"/></g></g></svg>